/* XPM */
static char *_1beacfa00cc467fdc2d33d28a44fbb1[] = {
/* columns rows colors chars-per-pixel */
"32 32 4 1 ",
"  c #FDFBFF",
". c #FEFBFF",
"X c #FEFCFF",
"o c None",
/* pixels */
"oo.XXooooooooooooooooooooooooooo",
"oo.X oooooooooooooooooooo.Xooooo",
"oo.Xooooooooooooooooooo.XX.ooooo",
"oo...XXooooooooooooooo.X..oooooo",
"ooo...Xooooooooooooo..X.oooooooo",
"ooo..XXXXX.X.Xooooo.XX.ooooooooo",
"oooo.XXX..X.X.X.Xoo.X.oo.XXooooo",
"oooo..XXXXXX.X.XXXXXX.Xo..Xooooo",
"ooooo.X.XX..X....XXX...X.X.ooooo",
"oooo..X.....XXo.XXXX X..XXoooooo",
"oooo...o....XX.XXXXXX X. .Xo.Xoo",
"oooo..ooo.X.XXXXX.XXX..oo. XX.oo",
"ooo.X.o.X.XXXXXX.X  .ooooo.X..Xo",
".XXX.XXXX....XXX. XXooooo.XX.XXo",
"..XXXXXX.X.XXXXXX..X.X.X.XXXXX.o",
"....X..X  .XXXXXXXXXXXXXXXXXXXXo",
"ooo.XX.Xo.XXX.X...X......X.....o",
"ooo.X....XX.X.XXXXX ... ...ooooo",
"ooo.Xo.XXX...XXXXXXXoooooooooooo",
"ooo...XXX..XX.X.X.XXXXXooooooooo",
"ooo..XX..XXXX..XX...XXXXoooooooo",
"ooo.X..X.X.X...XXX....XXXXoooooo",
"o.XX.X.X..XX.o.XX.ooo....X.Xoooo",
"o.X.XXX.o.X.oo..XXoooooo..XXXooo",
".XXXX..o.XXXooo..Xooooooo.X.XXoo",
".X...ooo.XXXooo..XXoooooo.X...oo",
"..oooooo.XX.Xoo.XXXX.XXXXXXooooo",
".oooooo.X....XXXX.X....X...ooooo",
"ooooooo.Xooo......XX....oooooooo",
"oooooo.XXoooooooo..XXooooooooooo",
"oooooo.X.oooooooo.X.XXoooooooooo",
"oooooo..ooooooooo.....oooooooooo"
};
